<svg width="710.926220703125px" height="122px" xmlns="http://www.w3.org/2000/svg" viewBox="-105.46311035156248 14 710.926220703125 122" style="background: rgba(0, 0, 0, 0);" preserveAspectRatio="xMidYMid"><defs><filter id="editing-extrude-glow"><feFlood flood-color="#333333" result="flood-1"></feFlood><feMorphology operator="erode" radius="1" in="SourceAlpha" result="erode"></feMorphology><feComposite operator="in" in="flood-1" in2="erode" result="comp1"></feComposite><feConvolveMatrix order="3,3" divisor="1" in="comp1" result="convolve" kernelMatrix="0 0 0 1 1 1 0 0 0"></feConvolveMatrix><feOffset dx="-3" dy="0" in="convolve" result="extrude"></feOffset><feComposite operator="in" in="flood-1" in2="extrude" result="comp-extrude"></feComposite><feFlood flood-color="#000000" result="flood-2"></feFlood><feComposite operator="in" in="flood-2" in2="SourceAlpha" result="comp2"></feComposite><feMorphology operator="dilate" radius="1" in="comp2" result="dilate"></feMorphology><feOffset dx="-4.5" dy="0" in="dilate" result="offset"></feOffset><feGaussianBlur in="offset" stdDeviation="5.8" result="blur"></feGaussianBlur><feComponentTransfer in="blur" result="shadow"><feFuncA type="linear" slope="0.8" intercept="-0.2"></feFuncA></feComponentTransfer><feMerge><feMergeNode in="shadow"></feMergeNode><feMergeNode in="comp-extrude"></feMergeNode><feMergeNode in="SourceGraphic"></feMergeNode></feMerge></filter></defs><g filter="url(#editing-extrude-glow)"><g transform="translate(-3.891111046075821, 99)"><path d="M30.21-33.92L30.21-33.92L30.21-33.92Q25.02-33.92 21.25-35.65L21.25-35.65L19.20-25.28L31.55-25.28L31.55-25.28Q31.55-21.89 29.86-19.74L29.86-19.74L29.86-19.74Q28.16-17.60 25.09-17.60L25.09-17.60L25.09-17.60Q21.76-17.60 18.69-18.82L18.69-18.82L18.69-18.82Q18.05-19.07 17.98-19.14L17.98-19.14L14.34 0L0.38 0L8.51-42.24L37.06-42.24L37.06-42.24Q37.06-38.34 35.23-36.13L35.23-36.13L35.23-36.13Q33.41-33.92 30.21-33.92ZM37.79-1.92L37.79-1.92L37.79-1.92Q36.29-3.58 35.62-6.21L35.62-6.21L35.62-6.21Q34.94-8.83 34.94-13.12L34.94-13.12L34.94-13.12Q34.94-17.41 36.42-21.31L36.42-21.31L36.42-21.31Q37.89-25.22 40.58-28.03L40.58-28.03L40.58-28.03Q46.08-33.92 55.17-33.92L55.17-33.92L55.17-33.92Q58.43-33.92 60.80-32.83L60.80-32.83L71.74-33.92L67.01-8.96L67.01-8.96Q66.82-8.19 66.82-6.78L66.82-6.78L66.82-6.78Q66.82-5.38 67.68-4.48L67.68-4.48L67.68-4.48Q68.54-3.58 69.82-3.46L69.82-3.46L69.82-3.46Q69.18-1.28 66.85 0L66.85 0L66.85 0Q64.51 1.28 61.89 1.28L61.89 1.28L61.89 1.28Q59.26 1.28 57.50 0.29L57.50 0.29L57.50 0.29Q55.74-0.70 55.23-2.37L55.23-2.37L55.23-2.37Q54.21-0.77 52.03 0.26L52.03 0.26L52.03 0.26Q49.86 1.28 46.94 1.28L46.94 1.28L46.94 1.28Q44.03 1.28 41.66 0.51L41.66 0.51L41.66 0.51Q39.30-0.26 37.79-1.92ZM51.30-27.90L51.30-27.90L51.30-27.90Q50.56-26.75 49.92-24.80L49.92-24.80L49.92-24.80Q49.28-22.85 48.22-17.63L48.22-17.63L48.22-17.63Q47.17-12.42 47.17-8.70L47.17-8.70L47.17-8.70Q47.17-4.99 47.74-3.90L47.74-3.90L47.74-3.90Q48.32-2.82 49.34-2.82L49.34-2.82L49.34-2.82Q51.39-2.82 52.90-4.77L52.90-4.77L52.90-4.77Q54.40-6.72 54.98-10.18L54.98-10.18L58.37-28.93L58.37-28.93Q57.02-30.08 55.46-30.08L55.46-30.08L55.46-30.08Q53.89-30.08 52.96-29.57L52.96-29.57L52.96-29.57Q52.03-29.06 51.30-27.90ZM106.37-26.62L106.37-26.62L106.37-26.62Q106.37-23.94 104.13-22.27L104.13-22.27L104.13-22.27Q101.89-20.61 98.24-20.61L98.24-20.61L98.24-20.61Q96.70-20.61 95.81-21.06L95.81-21.06L95.81-21.06Q96.51-22.72 96.74-24.80L96.74-24.80L96.74-24.80Q96.96-26.88 96.96-27.46L96.96-27.46L96.96-27.46Q96.96-30.14 95.10-30.14L95.10-30.14L95.10-30.14Q93.82-30.14 92.38-28.54L92.38-28.54L92.38-28.54Q90.94-26.94 89.73-24.45L89.73-24.45L89.73-24.45Q87.04-18.69 87.04-12.86L87.04-12.86L87.04-12.86Q87.04-9.66 88.26-8.22L88.26-8.22L88.26-8.22Q89.47-6.78 92.16-6.78L92.16-6.78L92.16-6.78Q95.87-6.78 98.82-9.86L98.82-9.86L98.82-9.86Q99.65-10.82 100.10-11.90L100.10-11.90L100.10-11.90Q102.53-10.62 102.53-7.10L102.53-7.10L102.53-7.10Q102.53-3.52 98.56-1.15L98.56-1.15L98.56-1.15Q94.46 1.28 87.94 1.28L87.94 1.28L87.94 1.28Q74.94 1.28 74.94-12.48L74.94-12.48L74.94-12.48Q74.94-22.53 80.64-28.29L80.64-28.29L80.64-28.29Q86.14-33.92 96.26-33.92L96.26-33.92L96.26-33.92Q106.37-33.92 106.37-26.62ZM128.64-2.69L128.64-2.69L128.64-2.69Q125.57 1.28 117.95 1.28L117.95 1.28L117.95 1.28Q113.98 1.28 111.10-1.12L111.10-1.12L111.10-1.12Q108.22-3.52 108.22-6.98L108.22-6.98L108.22-6.98Q108.22-8.90 108.42-9.86L108.42-9.86L112.70-32.64L125.70-33.92L121.02-9.22L121.02-9.22Q120.77-7.81 120.77-6.98L120.77-6.98L120.77-6.98Q120.77-3.26 123.01-3.26L123.01-3.26L123.01-3.26Q125.50-3.26 127.30-6.66L127.30-6.66L127.30-6.66Q127.87-7.74 128.13-9.15L128.13-9.15L132.67-32.64L145.28-33.92L140.54-8.96L140.54-8.96Q140.35-8 140.35-6.98L140.35-6.98L140.35-6.98Q140.35-5.95 140.93-4.83L140.93-4.83L140.93-4.83Q141.50-3.71 143.36-3.46L143.36-3.46L143.36-3.46Q142.98-1.92 141.63-0.90L141.63-0.90L141.63-0.90Q138.82 1.28 135.78 1.28L135.78 1.28L135.78 1.28Q132.74 1.28 130.94 0.19L130.94 0.19L130.94 0.19Q129.15-0.90 128.64-2.69ZM175.81 1.28L175.81 1.28L175.81 1.28Q168.06 1.28 168.06-4.74L168.06-4.74L168.06-4.74Q168.13-6.40 168.64-9.22L168.64-9.22L169.79-15.10L169.79-15.10Q171.52-23.42 171.52-25.28L171.52-25.28L171.52-25.28Q171.52-28.99 169.34-28.99L169.34-28.99L169.34-28.99Q165.70-28.99 163.78-19.46L163.78-19.46L160 0L147.14 1.28L153.79-32.70L164.29-33.92L163.26-27.65L163.26-27.65Q166.27-33.92 175.49-33.92L175.49-33.92L175.49-33.92Q179.97-33.92 181.86-32.03L181.86-32.03L181.86-32.03Q183.74-30.14 183.74-25.92L183.74-25.92L183.74-25.92Q183.74-21.95 181.70-12.67L181.70-12.67L181.70-12.67Q180.74-8.51 180.74-6.94L180.74-6.94L180.74-6.94Q180.74-5.38 181.60-4.48L181.60-4.48L181.60-4.48Q182.46-3.58 183.74-3.46L183.74-3.46L183.74-3.46Q183.10-1.28 180.90 0L180.90 0L180.90 0Q178.69 1.28 175.81 1.28ZM209.02-33.92L209.02-33.92L209.02-33.92Q211.33-33.92 213.12-33.41L213.12-33.41L213.12-33.41Q213.18-33.66 213.31-34.37L213.31-34.37L213.63-36.35L213.63-36.35Q213.89-37.63 214.27-39.74L214.27-39.74L215.30-44.80L228.03-46.08L220.93-8.96L220.93-8.96Q220.86-8.58 220.86-7.94L220.86-7.94L220.86-6.91L220.86-6.91Q220.86-5.50 221.57-4.45L221.57-4.45L221.57-4.45Q222.27-3.39 223.42-3.39L223.42-3.39L223.42-3.39Q222.14-0.38 218.24 0.90L218.24 0.90L218.24 0.90Q216.90 1.28 215.01 1.28L215.01 1.28L215.01 1.28Q213.12 1.28 211.39 0.29L211.39 0.29L211.39 0.29Q209.66-0.70 209.15-2.37L209.15-2.37L209.15-2.37Q208.13-0.70 206.08 0.29L206.08 0.29L206.08 0.29Q204.03 1.28 201.06 1.28L201.06 1.28L201.06 1.28Q198.08 1.28 195.62 0.51L195.62 0.51L195.62 0.51Q193.15-0.26 191.62-1.92L191.62-1.92L191.62-1.92Q188.80-5.18 188.80-12.61L188.80-12.61L188.80-12.61Q188.80-22.21 194.43-28.03L194.43-28.03L194.43-28.03Q200.06-33.92 209.02-33.92ZM208.58-30.08L208.58-30.08L208.58-30.08Q206.21-30.08 204.93-27.52L204.93-27.52L204.93-27.52Q203.65-24.96 202.34-18.62L202.34-18.62L202.34-18.62Q201.02-12.29 201.02-6.59L201.02-6.59L201.02-6.59Q201.02-2.69 203.33-2.69L203.33-2.69L203.33-2.69Q205.38-2.69 206.82-4.74L206.82-4.74L206.82-4.74Q208.26-6.78 208.83-10.18L208.83-10.18L212.29-28.93L212.29-28.93Q210.94-30.08 208.58-30.08ZM242.82 1.28L242.82 1.28L242.82 1.28Q228.74 1.28 228.74-11.97L228.74-11.97L228.74-11.97Q228.74-21.38 233.92-27.46L233.92-27.46L233.92-27.46Q239.42-33.92 248.96-33.92L248.96-33.92L248.96-33.92Q255.87-33.92 259.39-30.72L259.39-30.72L259.39-30.72Q262.91-27.52 262.91-20.80L262.91-20.80L262.91-20.80Q262.91-10.56 257.41-4.61L257.41-4.61L257.41-4.61Q252.03 1.28 242.82 1.28ZM244.48-26.56L244.48-26.56L244.48-26.56Q243.71-24.83 243.10-22.24L243.10-22.24L243.10-22.24Q242.50-19.65 241.73-15.55L241.73-15.55L241.73-15.55Q240.96-11.46 240.96-6.40L240.96-6.40L240.96-6.40Q240.96-4.74 241.50-3.65L241.50-3.65L241.50-3.65Q242.05-2.56 243.52-2.56L243.52-2.56L243.52-2.56Q244.99-2.56 245.92-3.26L245.92-3.26L245.92-3.26Q246.85-3.97 247.55-5.63L247.55-5.63L247.55-5.63Q248.83-8.58 249.86-14.05L249.86-14.05L249.86-14.05Q250.88-19.52 250.98-21.89L250.98-21.89L250.98-21.89Q251.07-24.26 251.07-26.02L251.07-26.02L251.07-26.02Q251.07-27.78 250.56-28.93L250.56-28.93L250.56-28.93Q250.05-30.08 248.61-30.08L248.61-30.08L248.61-30.08Q247.17-30.08 246.21-29.18L246.21-29.18L246.21-29.18Q245.25-28.29 244.48-26.56ZM308.99-33.92L308.99-33.92L308.99-33.92Q303.81-33.92 300.03-35.65L300.03-35.65L297.98-25.28L310.34-25.28L310.34-25.28Q310.34-21.89 308.64-19.74L308.64-19.74L308.64-19.74Q306.94-17.60 303.87-17.60L303.87-17.60L303.87-17.60Q300.54-17.60 297.47-18.82L297.47-18.82L297.47-18.82Q296.83-19.07 296.77-19.14L296.77-19.14L293.12 0L279.17 0L287.30-42.24L315.84-42.24L315.84-42.24Q315.84-38.34 314.02-36.13L314.02-36.13L314.02-36.13Q312.19-33.92 308.99-33.92ZM339.71-10.82L339.71-10.82L339.71-10.82Q341.31-9.73 341.31-7.33L341.31-7.33L341.31-7.33Q341.31-4.93 340.10-3.39L340.10-3.39L340.10-3.39Q338.88-1.86 336.90-0.83L336.90-0.83L336.90-0.83Q332.80 1.28 328.38 1.28L328.38 1.28L328.38 1.28Q323.97 1.28 321.38 0.32L321.38 0.32L321.38 0.32Q318.78-0.64 317.06-2.43L317.06-2.43L317.06-2.43Q313.66-5.82 313.66-12.03L313.66-12.03L313.66-12.03Q313.66-21.70 318.91-27.58L318.91-27.58L318.91-27.58Q324.54-33.92 334.34-33.92L334.34-33.92L334.34-33.92Q340.42-33.92 343.42-31.36L343.42-31.36L343.42-31.36Q345.66-29.44 345.66-26.30L345.66-26.30L345.66-26.30Q345.66-15.04 326.21-15.04L326.21-15.04L326.21-15.04Q325.95-13.38 325.95-11.97L325.95-11.97L325.95-11.97Q325.95-9.02 327.26-7.90L327.26-7.90L327.26-7.90Q328.58-6.78 331.01-6.78L331.01-6.78L331.01-6.78Q333.44-6.78 336.03-7.90L336.03-7.90L336.03-7.90Q338.62-9.02 339.71-10.82ZM326.66-17.79L326.66-17.79L326.66-17.79Q331.20-17.79 333.82-20.61L333.82-20.61L333.82-20.61Q336.45-23.30 336.45-27.58L336.45-27.58L336.45-27.58Q336.45-29.06 335.90-29.86L335.90-29.86L335.90-29.86Q335.36-30.66 334.27-30.66L334.27-30.66L334.27-30.66Q333.18-30.66 332.26-30.24L332.26-30.24L332.26-30.24Q331.33-29.82 330.37-28.42L330.37-28.42L330.37-28.42Q328.00-25.22 326.66-17.79ZM367.87-17.98L367.87-17.98L367.87-17.98Q370.18-22.08 370.18-26.24L370.18-26.24L370.18-26.24Q370.18-28.99 368.19-28.99L368.19-28.99L368.19-28.99Q366.66-28.99 365.06-26.37L365.06-26.37L365.06-26.37Q363.39-23.74 362.88-20.35L362.88-20.35L359.55 0L346.30 1.28L352.83-32.64L363.39-33.92L362.24-27.46L362.24-27.46Q365.38-33.92 372.42-33.92L372.42-33.92L372.42-33.92Q376.13-33.92 378.14-32L378.14-32L378.14-32Q380.16-30.08 380.16-26.14L380.16-26.14L380.16-26.14Q380.16-22.21 377.57-19.71L377.57-19.71L377.57-19.71Q374.98-17.22 370.56-17.22L370.56-17.22L370.56-17.22Q368.64-17.22 367.87-17.98ZM401.22-17.98L401.22-17.98L401.22-17.98Q403.52-22.08 403.52-26.24L403.52-26.24L403.52-26.24Q403.52-28.99 401.54-28.99L401.54-28.99L401.54-28.99Q400.00-28.99 398.40-26.37L398.40-26.37L398.40-26.37Q396.74-23.74 396.22-20.35L396.22-20.35L392.90 0L379.65 1.28L386.18-32.64L396.74-33.92L395.58-27.46L395.58-27.46Q398.72-33.92 405.76-33.92L405.76-33.92L405.76-33.92Q409.47-33.92 411.49-32L411.49-32L411.49-32Q413.50-30.08 413.50-26.14L413.50-26.14L413.50-26.14Q413.50-22.21 410.91-19.71L410.91-19.71L410.91-19.71Q408.32-17.22 403.90-17.22L403.90-17.22L403.90-17.22Q401.98-17.22 401.22-17.98ZM417.31-1.92L417.31-1.92L417.31-1.92Q415.81-3.58 415.14-6.21L415.14-6.21L415.14-6.21Q414.46-8.83 414.46-13.12L414.46-13.12L414.46-13.12Q414.46-17.41 415.94-21.31L415.94-21.31L415.94-21.31Q417.41-25.22 420.10-28.03L420.10-28.03L420.10-28.03Q425.60-33.92 434.69-33.92L434.69-33.92L434.69-33.92Q437.95-33.92 440.32-32.83L440.32-32.83L451.26-33.92L446.53-8.96L446.53-8.96Q446.34-8.19 446.34-6.78L446.34-6.78L446.34-6.78Q446.34-5.38 447.20-4.48L447.20-4.48L447.20-4.48Q448.06-3.58 449.34-3.46L449.34-3.46L449.34-3.46Q448.70-1.28 446.37 0L446.37 0L446.37 0Q444.03 1.28 441.41 1.28L441.41 1.28L441.41 1.28Q438.78 1.28 437.02 0.29L437.02 0.29L437.02 0.29Q435.26-0.70 434.75-2.37L434.75-2.37L434.75-2.37Q433.73-0.77 431.55 0.26L431.55 0.26L431.55 0.26Q429.38 1.28 426.46 1.28L426.46 1.28L426.46 1.28Q423.55 1.28 421.18 0.51L421.18 0.51L421.18 0.51Q418.82-0.26 417.31-1.92ZM430.82-27.90L430.82-27.90L430.82-27.90Q430.08-26.75 429.44-24.80L429.44-24.80L429.44-24.80Q428.80-22.85 427.74-17.63L427.74-17.63L427.74-17.63Q426.69-12.42 426.69-8.70L426.69-8.70L426.69-8.70Q426.69-4.99 427.26-3.90L427.26-3.90L427.26-3.90Q427.84-2.82 428.86-2.82L428.86-2.82L428.86-2.82Q430.91-2.82 432.42-4.77L432.42-4.77L432.42-4.77Q433.92-6.72 434.50-10.18L434.50-10.18L437.89-28.93L437.89-28.93Q436.54-30.08 434.98-30.08L434.98-30.08L434.98-30.08Q433.41-30.08 432.48-29.57L432.48-29.57L432.48-29.57Q431.55-29.06 430.82-27.90ZM474.75-17.98L474.75-17.98L474.75-17.98Q477.06-22.08 477.06-26.24L477.06-26.24L477.06-26.24Q477.06-28.99 475.07-28.99L475.07-28.99L475.07-28.99Q473.54-28.99 471.94-26.37L471.94-26.37L471.94-26.37Q470.27-23.74 469.76-20.35L469.76-20.35L466.43 0L453.18 1.28L459.71-32.64L470.27-33.92L469.12-27.46L469.12-27.46Q472.26-33.92 479.30-33.92L479.30-33.92L479.30-33.92Q483.01-33.92 485.02-32L485.02-32L485.02-32Q487.04-30.08 487.04-26.14L487.04-26.14L487.04-26.14Q487.04-22.21 484.45-19.71L484.45-19.71L484.45-19.71Q481.86-17.22 477.44-17.22L477.44-17.22L477.44-17.22Q475.52-17.22 474.75-17.98ZM503.42-3.52L503.42-3.52L503.42-3.52Q501.44 1.28 495.10 1.28L495.10 1.28L495.10 1.28Q491.84 1.28 489.79-0.96L489.79-0.96L489.79-0.96Q488.06-2.94 488.06-4.93L488.06-4.93L488.06-4.93Q488.06-10.11 490.43-20.22L490.43-20.22L492.80-32.64L505.79-33.92L501.89-13.70L501.89-13.70Q500.80-8.96 500.80-7.30L500.80-7.30L500.80-7.30Q500.80-3.65 503.42-3.52ZM493.95-41.54L493.95-41.54L493.95-41.54Q493.95-44.03 496.03-45.38L496.03-45.38L496.03-45.38Q498.11-46.72 501.12-46.72L501.12-46.72L501.12-46.72Q504.13-46.72 505.95-45.38L505.95-45.38L505.95-45.38Q507.78-44.03 507.78-41.54L507.78-41.54L507.78-41.54Q507.78-39.04 505.76-37.76L505.76-37.76L505.76-37.76Q503.74-36.48 500.74-36.48L500.74-36.48L500.74-36.48Q497.73-36.48 495.84-37.76L495.84-37.76L495.84-37.76Q493.95-39.04 493.95-41.54Z" fill="#eb6c6c"></path></g></g><style>text {
  font-size: 64px;
  font-family: Arial Black;
  dominant-baseline: central;
  text-anchor: middle;
}</style></svg>