<svg width="411.16249999999997px" height="122px" xmlns="http://www.w3.org/2000/svg" viewBox="44.41875000000002 14 411.16249999999997 122" style="background: rgba(0, 0, 0, 0);" preserveAspectRatio="xMidYMid"><defs><filter id="editing-extrude-glow"><feFlood flood-color="#333333" result="flood-1"></feFlood><feMorphology operator="erode" radius="1" in="SourceAlpha" result="erode"></feMorphology><feComposite operator="in" in="flood-1" in2="erode" result="comp1"></feComposite><feConvolveMatrix order="3,3" divisor="1" in="comp1" result="convolve" kernelMatrix="0 0 0 1 1 1 0 0 0"></feConvolveMatrix><feOffset dx="-3" dy="0" in="convolve" result="extrude"></feOffset><feComposite operator="in" in="flood-1" in2="extrude" result="comp-extrude"></feComposite><feFlood flood-color="#000000" result="flood-2"></feFlood><feComposite operator="in" in="flood-2" in2="SourceAlpha" result="comp2"></feComposite><feMorphology operator="dilate" radius="1" in="comp2" result="dilate"></feMorphology><feOffset dx="-4.5" dy="0" in="dilate" result="offset"></feOffset><feGaussianBlur in="offset" stdDeviation="5.8" result="blur"></feGaussianBlur><feComponentTransfer in="blur" result="shadow"><feFuncA type="linear" slope="0.8" intercept="-0.2"></feFuncA></feComponentTransfer><feMerge><feMergeNode in="shadow"></feMergeNode><feMergeNode in="comp-extrude"></feMergeNode><feMergeNode in="SourceGraphic"></feMergeNode></feMerge></filter></defs><g filter="url(#editing-extrude-glow)"><g transform="translate(108.49410820007324, 98.68000030517578)"><path d="M29.18 1.28L29.18 1.28L29.18 1.28Q20.99 1.28 20.22-10.37L20.22-10.37L9.22-10.37L9.22-10.37Q7.94-7.42 7.04-4.86L7.04-4.86L5.38 0L-3.58 0L16.58-42.24L30.34-42.24L33.02-11.14L33.02-11.14Q33.66-4.42 36.22-2.43L36.22-2.43L36.22-2.43Q34.37 1.28 29.18 1.28ZM14.72-23.17L11.20-15.04L20.03-15.04L19.26-31.49L19.26-33.22L14.72-23.17ZM39.10-3.07L39.10-3.07L47.04-44.80L60.03-46.08L58.05-36.29L58.05-36.29Q57.34-33.28 56.45-31.17L56.45-31.17L56.45-31.17Q57.86-32.96 60.93-33.66L60.93-33.66L60.93-33.66Q61.82-33.92 62.91-33.92L62.91-33.92L62.91-33.92Q68.86-33.92 72.13-30.30L72.13-30.30L72.13-30.30Q75.39-26.69 75.39-19.71L75.39-19.71L75.39-19.71Q75.39-10.62 70.21-4.93L70.21-4.93L70.21-4.93Q64.64 1.28 54.53 1.28L54.53 1.28L54.53 1.28Q47.55 1.28 42.30-1.02L42.30-1.02L42.30-1.02Q40.45-1.86 39.10-3.07ZM55.36-22.40L51.97-3.65L51.97-3.65Q53.31-2.50 54.98-2.50L54.98-2.50L54.98-2.50Q56.64-2.50 57.60-3.14L57.60-3.14L57.60-3.14Q58.56-3.78 59.26-5.06L59.26-5.06L59.26-5.06Q61.18-8.51 62.72-19.07L62.72-19.07L62.72-19.07Q63.17-22.08 63.17-25.09L63.17-25.09L63.17-25.09Q63.17-28.10 62.50-29.06L62.50-29.06L62.50-29.06Q61.82-30.02 60.54-30.02L60.54-30.02L60.54-30.02Q56.64-30.02 55.36-22.40L55.36-22.40ZM93.18 1.28L93.18 1.28L93.18 1.28Q79.10 1.28 79.10-11.97L79.10-11.97L79.10-11.97Q79.10-21.38 84.29-27.46L84.29-27.46L84.29-27.46Q89.79-33.92 99.33-33.92L99.33-33.92L99.33-33.92Q106.24-33.92 109.76-30.72L109.76-30.72L109.76-30.72Q113.28-27.52 113.28-20.80L113.28-20.80L113.28-20.80Q113.28-10.56 107.78-4.61L107.78-4.61L107.78-4.61Q102.40 1.28 93.18 1.28ZM94.85-26.56L94.85-26.56L94.85-26.56Q94.08-24.83 93.47-22.24L93.47-22.24L93.47-22.24Q92.86-19.65 92.10-15.55L92.10-15.55L92.10-15.55Q91.33-11.46 91.33-6.40L91.33-6.40L91.33-6.40Q91.33-4.74 91.87-3.65L91.87-3.65L91.87-3.65Q92.42-2.56 93.89-2.56L93.89-2.56L93.89-2.56Q95.36-2.56 96.29-3.26L96.29-3.26L96.29-3.26Q97.22-3.97 97.92-5.63L97.92-5.63L97.92-5.63Q99.20-8.58 100.22-14.05L100.22-14.05L100.22-14.05Q101.25-19.52 101.34-21.89L101.34-21.89L101.34-21.89Q101.44-24.26 101.44-26.02L101.44-26.02L101.44-26.02Q101.44-27.78 100.93-28.93L100.93-28.93L100.93-28.93Q100.42-30.08 98.98-30.08L98.98-30.08L98.98-30.08Q97.54-30.08 96.58-29.18L96.58-29.18L96.58-29.18Q95.62-28.29 94.85-26.56ZM137.60-2.69L137.60-2.69L137.60-2.69Q134.53 1.28 126.91 1.28L126.91 1.28L126.91 1.28Q122.94 1.28 120.06-1.12L120.06-1.12L120.06-1.12Q117.18-3.52 117.18-6.98L117.18-6.98L117.18-6.98Q117.18-8.90 117.38-9.86L117.38-9.86L121.66-32.64L134.66-33.92L129.98-9.22L129.98-9.22Q129.73-7.81 129.73-6.98L129.73-6.98L129.73-6.98Q129.73-3.26 131.97-3.26L131.97-3.26L131.97-3.26Q134.46-3.26 136.26-6.66L136.26-6.66L136.26-6.66Q136.83-7.74 137.09-9.15L137.09-9.15L141.63-32.64L154.24-33.92L149.50-8.96L149.50-8.96Q149.31-8 149.31-6.98L149.31-6.98L149.31-6.98Q149.31-5.95 149.89-4.83L149.89-4.83L149.89-4.83Q150.46-3.71 152.32-3.46L152.32-3.46L152.32-3.46Q151.94-1.92 150.59-0.90L150.59-0.90L150.59-0.90Q147.78 1.28 144.74 1.28L144.74 1.28L144.74 1.28Q141.70 1.28 139.90 0.19L139.90 0.19L139.90 0.19Q138.11-0.90 137.60-2.69ZM158.72-6.40L158.72-6.40L158.72-6.40Q158.72-8.13 159.62-12.48L159.62-12.48L163.01-29.76L159.23-29.76L159.49-31.68L159.49-31.68Q167.17-33.98 174.59-39.62L174.59-39.62L177.66-39.62L176.13-32.64L181.12-32.64L180.54-29.76L175.62-29.76L172.35-12.48L172.35-12.48Q171.52-8.51 171.52-7.17L171.52-7.17L171.52-7.17Q171.52-4.10 174.21-3.46L174.21-3.46L174.21-3.46Q173.57-1.28 171.26 0L171.26 0L171.26 0Q168.96 1.28 165.70 1.28L165.70 1.28L165.70 1.28Q162.43 1.28 160.58-0.77L160.58-0.77L160.58-0.77Q158.72-2.82 158.72-6.40ZM199.42 0L192.06 0L203.65-42.24L217.02-42.24L219.97-18.11L231.87-42.24L243.07-42.24L244.22-10.62L244.22-10.62Q244.48-4.35 247.55-2.43L247.55-2.43L247.55-2.43Q246.85-1.15 244.80 0.06L244.80 0.06L244.80 0.06Q242.75 1.28 240.03 1.28L240.03 1.28L240.03 1.28Q237.31 1.28 235.71 0.51L235.71 0.51L235.71 0.51Q234.11-0.26 233.22-1.54L233.22-1.54L233.22-1.54Q231.62-3.84 231.62-8.26L231.62-8.26L231.62-28.03L219.01 0L211.07 0L206.59-28.74L199.42 0ZM276.22-10.82L276.22-10.82L276.22-10.82Q277.82-9.73 277.82-7.33L277.82-7.33L277.82-7.33Q277.82-4.93 276.61-3.39L276.61-3.39L276.61-3.39Q275.39-1.86 273.41-0.83L273.41-0.83L273.41-0.83Q269.31 1.28 264.90 1.28L264.90 1.28L264.90 1.28Q260.48 1.28 257.89 0.32L257.89 0.32L257.89 0.32Q255.30-0.64 253.57-2.43L253.57-2.43L253.57-2.43Q250.18-5.82 250.18-12.03L250.18-12.03L250.18-12.03Q250.18-21.70 255.42-27.58L255.42-27.58L255.42-27.58Q261.06-33.92 270.85-33.92L270.85-33.92L270.85-33.92Q276.93-33.92 279.94-31.36L279.94-31.36L279.94-31.36Q282.18-29.44 282.18-26.30L282.18-26.30L282.18-26.30Q282.18-15.04 262.72-15.04L262.72-15.04L262.72-15.04Q262.46-13.38 262.46-11.97L262.46-11.97L262.46-11.97Q262.46-9.02 263.78-7.90L263.78-7.90L263.78-7.90Q265.09-6.78 267.52-6.78L267.52-6.78L267.52-6.78Q269.95-6.78 272.54-7.90L272.54-7.90L272.54-7.90Q275.14-9.02 276.22-10.82ZM263.17-17.79L263.17-17.79L263.17-17.79Q267.71-17.79 270.34-20.61L270.34-20.61L270.34-20.61Q272.96-23.30 272.96-27.58L272.96-27.58L272.96-27.58Q272.96-29.06 272.42-29.86L272.42-29.86L272.42-29.86Q271.87-30.66 270.78-30.66L270.78-30.66L270.78-30.66Q269.70-30.66 268.77-30.24L268.77-30.24L268.77-30.24Q267.84-29.82 266.88-28.42L266.88-28.42L266.88-28.42Q264.51-25.22 263.17-17.79Z" fill="#eb6c6c"></path></g></g><style>text {
  font-size: 64px;
  font-family: Arial Black;
  dominant-baseline: central;
  text-anchor: middle;
}</style></svg>