<svg width="365.20625px" height="122px" xmlns="http://www.w3.org/2000/svg" viewBox="67.396875 14 365.20625 122" style="background: rgba(0, 0, 0, 0);" preserveAspectRatio="xMidYMid"><defs><filter id="editing-extrude-glow"><feFlood flood-color="#333333" result="flood-1"></feFlood><feMorphology operator="erode" radius="1" in="SourceAlpha" result="erode"></feMorphology><feComposite operator="in" in="flood-1" in2="erode" result="comp1"></feComposite><feConvolveMatrix order="3,3" divisor="1" in="comp1" result="convolve" kernelMatrix="0 0 0 1 1 1 0 0 0"></feConvolveMatrix><feOffset dx="-3" dy="0" in="convolve" result="extrude"></feOffset><feComposite operator="in" in="flood-1" in2="extrude" result="comp-extrude"></feComposite><feFlood flood-color="#000000" result="flood-2"></feFlood><feComposite operator="in" in="flood-2" in2="SourceAlpha" result="comp2"></feComposite><feMorphology operator="dilate" radius="1" in="comp2" result="dilate"></feMorphology><feOffset dx="-4.5" dy="0" in="dilate" result="offset"></feOffset><feGaussianBlur in="offset" stdDeviation="5.8" result="blur"></feGaussianBlur><feComponentTransfer in="blur" result="shadow"><feFuncA type="linear" slope="0.8" intercept="-0.2"></feFuncA></feComponentTransfer><feMerge><feMergeNode in="shadow"></feMergeNode><feMergeNode in="comp-extrude"></feMergeNode><feMergeNode in="SourceGraphic"></feMergeNode></feMerge></filter></defs><g filter="url(#editing-extrude-glow)"><g transform="translate(123.46998289227486, 104.1200008392334)"><path d="M26.11-42.69L26.11-42.69L26.11-42.69Q41.79-42.69 41.79-31.62L41.79-31.62L41.79-31.62Q41.79-25.54 37.89-21.89L37.89-21.89L37.89-21.89Q34.05-18.24 27.33-18.24L27.33-18.24L27.33-18.24Q24.19-18.24 21.76-20.03L21.76-20.03L21.76-20.03Q20.61-20.80 19.84-21.82L19.84-21.82L19.84-21.82Q24.51-21.82 26.98-24.67L26.98-24.67L26.98-24.67Q29.44-27.52 29.44-33.09L29.44-33.09L29.44-33.09Q29.44-38.66 23.94-38.66L23.94-38.66L22.40-38.66L22.40-38.66Q22.02-38.66 21.70-38.59L21.70-38.59L14.34 0L0.45 0L8.32-41.92L8.32-41.92Q15.17-42.56 19.14-42.62L19.14-42.62L19.14-42.62Q23.10-42.69 26.11-42.69ZM62.14-17.98L62.14-17.98L62.14-17.98Q64.45-22.08 64.45-26.24L64.45-26.24L64.45-26.24Q64.45-28.99 62.46-28.99L62.46-28.99L62.46-28.99Q60.93-28.99 59.33-26.37L59.33-26.37L59.33-26.37Q57.66-23.74 57.15-20.35L57.15-20.35L53.82 0L40.58 1.28L47.10-32.64L57.66-33.92L56.51-27.46L56.51-27.46Q59.65-33.92 66.69-33.92L66.69-33.92L66.69-33.92Q70.40-33.92 72.42-32L72.42-32L72.42-32Q74.43-30.08 74.43-26.14L74.43-26.14L74.43-26.14Q74.43-22.21 71.84-19.71L71.84-19.71L71.84-19.71Q69.25-17.22 64.83-17.22L64.83-17.22L64.83-17.22Q62.91-17.22 62.14-17.98ZM89.41 1.28L89.41 1.28L89.41 1.28Q75.33 1.28 75.33-11.97L75.33-11.97L75.33-11.97Q75.33-21.38 80.51-27.46L80.51-27.46L80.51-27.46Q86.02-33.92 95.55-33.92L95.55-33.92L95.55-33.92Q102.46-33.92 105.98-30.72L105.98-30.72L105.98-30.72Q109.50-27.52 109.50-20.80L109.50-20.80L109.50-20.80Q109.50-10.56 104-4.61L104-4.61L104-4.61Q98.62 1.28 89.41 1.28ZM91.07-26.56L91.07-26.56L91.07-26.56Q90.30-24.83 89.70-22.24L89.70-22.24L89.70-22.24Q89.09-19.65 88.32-15.55L88.32-15.55L88.32-15.55Q87.55-11.46 87.55-6.40L87.55-6.40L87.55-6.40Q87.55-4.74 88.10-3.65L88.10-3.65L88.10-3.65Q88.64-2.56 90.11-2.56L90.11-2.56L90.11-2.56Q91.58-2.56 92.51-3.26L92.51-3.26L92.51-3.26Q93.44-3.97 94.14-5.63L94.14-5.63L94.14-5.63Q95.42-8.58 96.45-14.05L96.45-14.05L96.45-14.05Q97.47-19.52 97.57-21.89L97.57-21.89L97.57-21.89Q97.66-24.26 97.66-26.02L97.66-26.02L97.66-26.02Q97.66-27.78 97.15-28.93L97.15-28.93L97.15-28.93Q96.64-30.08 95.20-30.08L95.20-30.08L95.20-30.08Q93.76-30.08 92.80-29.18L92.80-29.18L92.80-29.18Q91.84-28.29 91.07-26.56ZM104.38 7.62L104.38 7.62L104.38 7.62Q107.71 7.36 110.14 3.20L110.14 3.20L110.14 3.20Q112 0 113.22-5.89L113.22-5.89L118.40-32.64L131.26-33.92L125.82-5.89L125.82-5.89Q123.71 4.80 120.45 8.32L120.45 8.32L120.45 8.32Q118.72 10.24 116.48 10.88L116.48 10.88L116.48 10.88Q114.24 11.52 111.68 11.52L111.68 11.52L111.68 11.52Q106.30 11.52 104.38 7.62ZM119.42-41.54L119.42-41.54L119.42-41.54Q119.42-44.03 121.50-45.38L121.50-45.38L121.50-45.38Q123.58-46.72 126.59-46.72L126.59-46.72L126.59-46.72Q129.60-46.72 131.42-45.38L131.42-45.38L131.42-45.38Q133.25-44.03 133.25-41.54L133.25-41.54L133.25-41.54Q133.25-39.04 131.23-37.76L131.23-37.76L131.23-37.76Q129.22-36.48 126.21-36.48L126.21-36.48L126.21-36.48Q123.20-36.48 121.31-37.76L121.31-37.76L121.31-37.76Q119.42-39.04 119.42-41.54ZM159.49-10.82L159.49-10.82L159.49-10.82Q161.09-9.73 161.09-7.33L161.09-7.33L161.09-7.33Q161.09-4.93 159.87-3.39L159.87-3.39L159.87-3.39Q158.66-1.86 156.67-0.83L156.67-0.83L156.67-0.83Q152.58 1.28 148.16 1.28L148.16 1.28L148.16 1.28Q143.74 1.28 141.15 0.32L141.15 0.32L141.15 0.32Q138.56-0.64 136.83-2.43L136.83-2.43L136.83-2.43Q133.44-5.82 133.44-12.03L133.44-12.03L133.44-12.03Q133.44-21.70 138.69-27.58L138.69-27.58L138.69-27.58Q144.32-33.92 154.11-33.92L154.11-33.92L154.11-33.92Q160.19-33.92 163.20-31.36L163.20-31.36L163.20-31.36Q165.44-29.44 165.44-26.30L165.44-26.30L165.44-26.30Q165.44-15.04 145.98-15.04L145.98-15.04L145.98-15.04Q145.73-13.38 145.73-11.97L145.73-11.97L145.73-11.97Q145.73-9.02 147.04-7.90L147.04-7.90L147.04-7.90Q148.35-6.78 150.78-6.78L150.78-6.78L150.78-6.78Q153.22-6.78 155.81-7.90L155.81-7.90L155.81-7.90Q158.40-9.02 159.49-10.82ZM146.43-17.79L146.43-17.79L146.43-17.79Q150.98-17.79 153.60-20.61L153.60-20.61L153.60-20.61Q156.22-23.30 156.22-27.58L156.22-27.58L156.22-27.58Q156.22-29.06 155.68-29.86L155.68-29.86L155.68-29.86Q155.14-30.66 154.05-30.66L154.05-30.66L154.05-30.66Q152.96-30.66 152.03-30.24L152.03-30.24L152.03-30.24Q151.10-29.82 150.14-28.42L150.14-28.42L150.14-28.42Q147.78-25.22 146.43-17.79ZM199.04-26.62L199.04-26.62L199.04-26.62Q199.04-23.94 196.80-22.27L196.80-22.27L196.80-22.27Q194.56-20.61 190.91-20.61L190.91-20.61L190.91-20.61Q189.38-20.61 188.48-21.06L188.48-21.06L188.48-21.06Q189.18-22.72 189.41-24.80L189.41-24.80L189.41-24.80Q189.63-26.88 189.63-27.46L189.63-27.46L189.63-27.46Q189.63-30.14 187.78-30.14L187.78-30.14L187.78-30.14Q186.50-30.14 185.06-28.54L185.06-28.54L185.06-28.54Q183.62-26.94 182.40-24.45L182.40-24.45L182.40-24.45Q179.71-18.69 179.71-12.86L179.71-12.86L179.71-12.86Q179.71-9.66 180.93-8.22L180.93-8.22L180.93-8.22Q182.14-6.78 184.83-6.78L184.83-6.78L184.83-6.78Q188.54-6.78 191.49-9.86L191.49-9.86L191.49-9.86Q192.32-10.82 192.77-11.90L192.77-11.90L192.77-11.90Q195.20-10.62 195.20-7.10L195.20-7.10L195.20-7.10Q195.20-3.52 191.23-1.15L191.23-1.15L191.23-1.15Q187.14 1.28 180.61 1.28L180.61 1.28L180.61 1.28Q167.62 1.28 167.62-12.48L167.62-12.48L167.62-12.48Q167.62-22.53 173.31-28.29L173.31-28.29L173.31-28.29Q178.82-33.92 188.93-33.92L188.93-33.92L188.93-33.92Q199.04-33.92 199.04-26.62ZM201.79-6.40L201.79-6.40L201.79-6.40Q201.79-8.13 202.69-12.48L202.69-12.48L206.08-29.76L202.30-29.76L202.56-31.68L202.56-31.68Q210.24-33.98 217.66-39.62L217.66-39.62L220.74-39.62L219.20-32.64L224.19-32.64L223.62-29.76L218.69-29.76L215.42-12.48L215.42-12.48Q214.59-8.51 214.59-7.17L214.59-7.17L214.59-7.17Q214.59-4.10 217.28-3.46L217.28-3.46L217.28-3.46Q216.64-1.28 214.34 0L214.34 0L214.34 0Q212.03 1.28 208.77 1.28L208.77 1.28L208.77 1.28Q205.50 1.28 203.65-0.77L203.65-0.77L203.65-0.77Q201.79-2.82 201.79-6.40ZM243.01-22.46L243.01-22.46L243.01-22.46Q243.90-24.83 243.90-26.88L243.90-26.88L243.90-26.88Q243.90-30.66 240.83-30.66L240.83-30.66L240.83-30.66Q239.23-30.66 237.92-29.22L237.92-29.22L237.92-29.22Q236.61-27.78 236.61-25.98L236.61-25.98L236.61-25.98Q236.61-24.70 237.63-23.68L237.63-23.68L237.63-23.68Q239.10-22.27 242.88-19.97L242.88-19.97L242.88-19.97Q246.66-17.66 248.10-15.78L248.10-15.78L248.10-15.78Q249.54-13.89 249.54-11.30L249.54-11.30L249.54-11.30Q249.54-8.70 248.29-6.34L248.29-6.34L248.29-6.34Q247.04-3.97 244.80-2.30L244.80-2.30L244.80-2.30Q240 1.28 232.32 1.28L232.32 1.28L232.32 1.28Q228.16 1.28 224.96-0.90L224.96-0.90L224.96-0.90Q221.76-3.01 221.76-5.50L221.76-5.50L221.76-5.50Q221.76-8 223.58-9.47L223.58-9.47L223.58-9.47Q225.41-10.94 228.10-10.94L228.10-10.94L228.10-10.94Q230.78-10.94 232.45-9.92L232.45-9.92L232.45-9.92Q231.62-7.81 231.62-6.40L231.62-6.40L231.62-6.40Q231.62-2.18 235.20-2.18L235.20-2.18L235.20-2.18Q236.74-2.18 237.76-3.14L237.76-3.14L237.76-3.14Q238.78-4.10 238.78-5.76L238.78-5.76L238.78-5.76Q238.78-9.02 233.28-12.48L233.28-12.48L233.28-12.48Q228.80-15.42 227.78-16.58L227.78-16.58L227.78-16.58Q226.05-18.62 226.05-21.18L226.05-21.18L226.05-21.18Q226.05-23.74 227.26-26.18L227.26-26.18L227.26-26.18Q228.48-28.61 230.72-30.34L230.72-30.34L230.72-30.34Q235.39-33.92 243.52-33.92L243.52-33.92L243.52-33.92Q247.68-33.92 250.14-32.26L250.14-32.26L250.14-32.26Q252.61-30.59 252.61-27.78L252.61-27.78L252.61-27.78Q252.61-24.96 250.91-23.36L250.91-23.36L250.91-23.36Q249.22-21.76 246.14-21.76L246.14-21.76L246.14-21.76Q244.03-21.76 243.01-22.46Z" fill="#eb6c6c"></path></g></g><style>text {
  font-size: 64px;
  font-family: Arial Black;
  dominant-baseline: central;
  text-anchor: middle;
}</style></svg>